<mxfile host="app.diagrams.net" modified="2021-09-14T23:38:11.839Z" agent="5.0 (Macintosh; Intel Mac OS X 10_15_7) AppleWebKit/537.36 (KHTML, like Gecko) Chrome/93.0.4577.82 Safari/537.36" etag="JhFGNQCnxAJanZyw22pb" version="15.2.5" type="github">
  <diagram id="eCEPqgotwZQc1uM3H5h4" name="Page-1">
    <mxGraphModel dx="1932" dy="670" grid="1" gridSize="10" guides="1" tooltips="1" connect="1" arrows="1" fold="1" page="1" pageScale="1" pageWidth="4000" pageHeight="400" math="0" shadow="0">
      <root>
        <mxCell id="0" />
        <mxCell id="1" parent="0" />
        <mxCell id="sOK9xL0Q-kKHLEvzhYfY-1" value="You You Xue" style="whiteSpace=wrap;html=1;" parent="1" vertex="1">
          <mxGeometry x="40" y="700" width="120" height="60" as="geometry" />
        </mxCell>
        <mxCell id="sOK9xL0Q-kKHLEvzhYfY-2" value="Gracie Forrest" style="whiteSpace=wrap;html=1;" parent="1" vertex="1">
          <mxGeometry x="200" y="700" width="120" height="60" as="geometry" />
        </mxCell>
        <mxCell id="sOK9xL0Q-kKHLEvzhYfY-4" value="Declan Nelson" style="whiteSpace=wrap;html=1;" parent="1" vertex="1">
          <mxGeometry x="40" y="600" width="120" height="60" as="geometry" />
        </mxCell>
        <mxCell id="sOK9xL0Q-kKHLEvzhYfY-5" value="Max Gunther" style="whiteSpace=wrap;html=1;" parent="1" vertex="1">
          <mxGeometry x="200" y="600" width="120" height="60" as="geometry" />
        </mxCell>
        <mxCell id="sOK9xL0Q-kKHLEvzhYfY-6" value="" style="endArrow=none;html=1;exitX=1;exitY=0.5;exitDx=0;exitDy=0;entryX=0;entryY=0.5;entryDx=0;entryDy=0;" parent="1" source="sOK9xL0Q-kKHLEvzhYfY-4" target="sOK9xL0Q-kKHLEvzhYfY-5" edge="1">
          <mxGeometry width="50" height="50" relative="1" as="geometry">
            <mxPoint x="410" y="900" as="sourcePoint" />
            <mxPoint x="460" y="850" as="targetPoint" />
          </mxGeometry>
        </mxCell>
        <mxCell id="sOK9xL0Q-kKHLEvzhYfY-7" value="" style="endArrow=none;html=1;" parent="1" edge="1">
          <mxGeometry width="50" height="50" relative="1" as="geometry">
            <mxPoint x="180" y="680" as="sourcePoint" />
            <mxPoint x="180" y="630" as="targetPoint" />
          </mxGeometry>
        </mxCell>
        <mxCell id="sOK9xL0Q-kKHLEvzhYfY-8" value="" style="endArrow=none;html=1;entryX=0.5;entryY=0;entryDx=0;entryDy=0;" parent="1" target="sOK9xL0Q-kKHLEvzhYfY-2" edge="1">
          <mxGeometry width="50" height="50" relative="1" as="geometry">
            <mxPoint x="100" y="700" as="sourcePoint" />
            <mxPoint x="270" y="680" as="targetPoint" />
            <Array as="points">
              <mxPoint x="100" y="680" />
              <mxPoint x="260" y="680" />
            </Array>
          </mxGeometry>
        </mxCell>
        <mxCell id="sOK9xL0Q-kKHLEvzhYfY-9" value="Yi Jun Eng" style="whiteSpace=wrap;html=1;" parent="1" vertex="1">
          <mxGeometry x="520" y="700" width="120" height="60" as="geometry" />
        </mxCell>
        <mxCell id="sOK9xL0Q-kKHLEvzhYfY-10" value="Shahed Dakak" style="whiteSpace=wrap;html=1;" parent="1" vertex="1">
          <mxGeometry x="680" y="700" width="120" height="60" as="geometry" />
        </mxCell>
        <mxCell id="sOK9xL0Q-kKHLEvzhYfY-11" value="Mariana Gee Olmedilla" style="whiteSpace=wrap;html=1;" parent="1" vertex="1">
          <mxGeometry x="520" y="600" width="120" height="60" as="geometry" />
        </mxCell>
        <mxCell id="sOK9xL0Q-kKHLEvzhYfY-12" value="Holly Plater" style="whiteSpace=wrap;html=1;" parent="1" vertex="1">
          <mxGeometry x="680" y="600" width="120" height="60" as="geometry" />
        </mxCell>
        <mxCell id="sOK9xL0Q-kKHLEvzhYfY-13" value="" style="endArrow=none;html=1;exitX=1;exitY=0.5;exitDx=0;exitDy=0;entryX=0;entryY=0.5;entryDx=0;entryDy=0;" parent="1" source="sOK9xL0Q-kKHLEvzhYfY-11" target="sOK9xL0Q-kKHLEvzhYfY-12" edge="1">
          <mxGeometry width="50" height="50" relative="1" as="geometry">
            <mxPoint x="890" y="900" as="sourcePoint" />
            <mxPoint x="940" y="850" as="targetPoint" />
          </mxGeometry>
        </mxCell>
        <mxCell id="sOK9xL0Q-kKHLEvzhYfY-14" value="" style="endArrow=none;html=1;" parent="1" edge="1">
          <mxGeometry width="50" height="50" relative="1" as="geometry">
            <mxPoint x="660" y="680" as="sourcePoint" />
            <mxPoint x="660" y="630" as="targetPoint" />
          </mxGeometry>
        </mxCell>
        <mxCell id="sOK9xL0Q-kKHLEvzhYfY-15" value="" style="endArrow=none;html=1;entryX=0.5;entryY=0;entryDx=0;entryDy=0;" parent="1" target="sOK9xL0Q-kKHLEvzhYfY-10" edge="1">
          <mxGeometry width="50" height="50" relative="1" as="geometry">
            <mxPoint x="580" y="700" as="sourcePoint" />
            <mxPoint x="750" y="680" as="targetPoint" />
            <Array as="points">
              <mxPoint x="580" y="680" />
              <mxPoint x="740" y="680" />
            </Array>
          </mxGeometry>
        </mxCell>
        <mxCell id="sOK9xL0Q-kKHLEvzhYfY-16" value="Poppy Thody" style="whiteSpace=wrap;html=1;" parent="1" vertex="1">
          <mxGeometry x="840" y="700" width="120" height="60" as="geometry" />
        </mxCell>
        <mxCell id="sOK9xL0Q-kKHLEvzhYfY-17" value="Harris Leung" style="whiteSpace=wrap;html=1;" parent="1" vertex="1">
          <mxGeometry x="1000" y="700" width="120" height="60" as="geometry" />
        </mxCell>
        <mxCell id="sOK9xL0Q-kKHLEvzhYfY-18" value="Rachel Blackhurst" style="whiteSpace=wrap;html=1;" parent="1" vertex="1">
          <mxGeometry x="840" y="600" width="120" height="60" as="geometry" />
        </mxCell>
        <mxCell id="sOK9xL0Q-kKHLEvzhYfY-19" value="Tobias &quot;Toby&quot; Loader" style="whiteSpace=wrap;html=1;" parent="1" vertex="1">
          <mxGeometry x="1000" y="600" width="120" height="60" as="geometry" />
        </mxCell>
        <mxCell id="sOK9xL0Q-kKHLEvzhYfY-20" value="" style="endArrow=none;html=1;exitX=1;exitY=0.5;exitDx=0;exitDy=0;entryX=0;entryY=0.5;entryDx=0;entryDy=0;" parent="1" source="sOK9xL0Q-kKHLEvzhYfY-18" target="sOK9xL0Q-kKHLEvzhYfY-19" edge="1">
          <mxGeometry width="50" height="50" relative="1" as="geometry">
            <mxPoint x="1210" y="900" as="sourcePoint" />
            <mxPoint x="1260" y="850" as="targetPoint" />
          </mxGeometry>
        </mxCell>
        <mxCell id="sOK9xL0Q-kKHLEvzhYfY-21" value="" style="endArrow=none;html=1;" parent="1" edge="1">
          <mxGeometry width="50" height="50" relative="1" as="geometry">
            <mxPoint x="980" y="680" as="sourcePoint" />
            <mxPoint x="980" y="630" as="targetPoint" />
          </mxGeometry>
        </mxCell>
        <mxCell id="sOK9xL0Q-kKHLEvzhYfY-22" value="" style="endArrow=none;html=1;entryX=0.5;entryY=0;entryDx=0;entryDy=0;" parent="1" target="sOK9xL0Q-kKHLEvzhYfY-17" edge="1">
          <mxGeometry width="50" height="50" relative="1" as="geometry">
            <mxPoint x="900" y="700" as="sourcePoint" />
            <mxPoint x="1070" y="680" as="targetPoint" />
            <Array as="points">
              <mxPoint x="900" y="680" />
              <mxPoint x="1060" y="680" />
            </Array>
          </mxGeometry>
        </mxCell>
        <mxCell id="sOK9xL0Q-kKHLEvzhYfY-23" value="James McCulloch" style="whiteSpace=wrap;html=1;" parent="1" vertex="1">
          <mxGeometry x="1160" y="700" width="120" height="60" as="geometry" />
        </mxCell>
        <mxCell id="sOK9xL0Q-kKHLEvzhYfY-24" value="Evan Sun" style="whiteSpace=wrap;html=1;" parent="1" vertex="1">
          <mxGeometry x="1320" y="700" width="120" height="60" as="geometry" />
        </mxCell>
        <mxCell id="sOK9xL0Q-kKHLEvzhYfY-25" value="Caroline Longley" style="whiteSpace=wrap;html=1;" parent="1" vertex="1">
          <mxGeometry x="1160" y="600" width="120" height="60" as="geometry" />
        </mxCell>
        <mxCell id="sOK9xL0Q-kKHLEvzhYfY-26" value="Eleni Thwaites" style="whiteSpace=wrap;html=1;" parent="1" vertex="1">
          <mxGeometry x="1320" y="600" width="120" height="60" as="geometry" />
        </mxCell>
        <mxCell id="sOK9xL0Q-kKHLEvzhYfY-27" value="" style="endArrow=none;html=1;exitX=1;exitY=0.5;exitDx=0;exitDy=0;entryX=0;entryY=0.5;entryDx=0;entryDy=0;" parent="1" source="sOK9xL0Q-kKHLEvzhYfY-25" target="sOK9xL0Q-kKHLEvzhYfY-26" edge="1">
          <mxGeometry width="50" height="50" relative="1" as="geometry">
            <mxPoint x="1530" y="900" as="sourcePoint" />
            <mxPoint x="1580" y="850" as="targetPoint" />
          </mxGeometry>
        </mxCell>
        <mxCell id="sOK9xL0Q-kKHLEvzhYfY-28" value="" style="endArrow=none;html=1;" parent="1" edge="1">
          <mxGeometry width="50" height="50" relative="1" as="geometry">
            <mxPoint x="1300" y="680" as="sourcePoint" />
            <mxPoint x="1300" y="630" as="targetPoint" />
          </mxGeometry>
        </mxCell>
        <mxCell id="sOK9xL0Q-kKHLEvzhYfY-29" value="" style="endArrow=none;html=1;entryX=0.5;entryY=0;entryDx=0;entryDy=0;" parent="1" target="sOK9xL0Q-kKHLEvzhYfY-24" edge="1">
          <mxGeometry width="50" height="50" relative="1" as="geometry">
            <mxPoint x="1220" y="700" as="sourcePoint" />
            <mxPoint x="1390" y="680" as="targetPoint" />
            <Array as="points">
              <mxPoint x="1220" y="680" />
              <mxPoint x="1380" y="680" />
            </Array>
          </mxGeometry>
        </mxCell>
        <mxCell id="sOK9xL0Q-kKHLEvzhYfY-30" value="PIppa Linden-Howes" style="whiteSpace=wrap;html=1;" parent="1" vertex="1">
          <mxGeometry x="1480" y="700" width="120" height="60" as="geometry" />
        </mxCell>
        <mxCell id="sOK9xL0Q-kKHLEvzhYfY-31" value="Hannah West" style="whiteSpace=wrap;html=1;" parent="1" vertex="1">
          <mxGeometry x="1640" y="700" width="120" height="60" as="geometry" />
        </mxCell>
        <mxCell id="sOK9xL0Q-kKHLEvzhYfY-32" value="Eddie Day" style="whiteSpace=wrap;html=1;" parent="1" vertex="1">
          <mxGeometry x="1480" y="600" width="120" height="60" as="geometry" />
        </mxCell>
        <mxCell id="sOK9xL0Q-kKHLEvzhYfY-33" value="Isabella Dobson" style="whiteSpace=wrap;html=1;" parent="1" vertex="1">
          <mxGeometry x="1640" y="600" width="120" height="60" as="geometry" />
        </mxCell>
        <mxCell id="sOK9xL0Q-kKHLEvzhYfY-34" value="" style="endArrow=none;html=1;exitX=1;exitY=0.5;exitDx=0;exitDy=0;entryX=0;entryY=0.5;entryDx=0;entryDy=0;" parent="1" source="sOK9xL0Q-kKHLEvzhYfY-32" target="sOK9xL0Q-kKHLEvzhYfY-33" edge="1">
          <mxGeometry width="50" height="50" relative="1" as="geometry">
            <mxPoint x="1850" y="900" as="sourcePoint" />
            <mxPoint x="1900" y="850" as="targetPoint" />
          </mxGeometry>
        </mxCell>
        <mxCell id="sOK9xL0Q-kKHLEvzhYfY-35" value="" style="endArrow=none;html=1;" parent="1" edge="1">
          <mxGeometry width="50" height="50" relative="1" as="geometry">
            <mxPoint x="1620" y="680" as="sourcePoint" />
            <mxPoint x="1620" y="630" as="targetPoint" />
          </mxGeometry>
        </mxCell>
        <mxCell id="sOK9xL0Q-kKHLEvzhYfY-36" value="" style="endArrow=none;html=1;entryX=0.5;entryY=0;entryDx=0;entryDy=0;" parent="1" target="sOK9xL0Q-kKHLEvzhYfY-31" edge="1">
          <mxGeometry width="50" height="50" relative="1" as="geometry">
            <mxPoint x="1540" y="700" as="sourcePoint" />
            <mxPoint x="1710" y="680" as="targetPoint" />
            <Array as="points">
              <mxPoint x="1540" y="680" />
              <mxPoint x="1700" y="680" />
            </Array>
          </mxGeometry>
        </mxCell>
        <mxCell id="sOK9xL0Q-kKHLEvzhYfY-37" value="Kiana Moradian" style="whiteSpace=wrap;html=1;" parent="1" vertex="1">
          <mxGeometry x="1800" y="700" width="120" height="60" as="geometry" />
        </mxCell>
        <mxCell id="sOK9xL0Q-kKHLEvzhYfY-38" value="Gauri Kumar" style="whiteSpace=wrap;html=1;" parent="1" vertex="1">
          <mxGeometry x="1960" y="700" width="120" height="60" as="geometry" />
        </mxCell>
        <mxCell id="sOK9xL0Q-kKHLEvzhYfY-39" value="Tim Western" style="whiteSpace=wrap;html=1;" parent="1" vertex="1">
          <mxGeometry x="1800" y="600" width="120" height="60" as="geometry" />
        </mxCell>
        <mxCell id="sOK9xL0Q-kKHLEvzhYfY-40" value="Bahar Ganjvar" style="whiteSpace=wrap;html=1;" parent="1" vertex="1">
          <mxGeometry x="1960" y="600" width="120" height="60" as="geometry" />
        </mxCell>
        <mxCell id="sOK9xL0Q-kKHLEvzhYfY-41" value="" style="endArrow=none;html=1;exitX=1;exitY=0.5;exitDx=0;exitDy=0;entryX=0;entryY=0.5;entryDx=0;entryDy=0;" parent="1" source="sOK9xL0Q-kKHLEvzhYfY-39" target="sOK9xL0Q-kKHLEvzhYfY-40" edge="1">
          <mxGeometry width="50" height="50" relative="1" as="geometry">
            <mxPoint x="2170" y="900" as="sourcePoint" />
            <mxPoint x="2220" y="850" as="targetPoint" />
          </mxGeometry>
        </mxCell>
        <mxCell id="sOK9xL0Q-kKHLEvzhYfY-42" value="" style="endArrow=none;html=1;" parent="1" edge="1">
          <mxGeometry width="50" height="50" relative="1" as="geometry">
            <mxPoint x="1940" y="680" as="sourcePoint" />
            <mxPoint x="1940" y="630" as="targetPoint" />
          </mxGeometry>
        </mxCell>
        <mxCell id="sOK9xL0Q-kKHLEvzhYfY-43" value="" style="endArrow=none;html=1;entryX=0.5;entryY=0;entryDx=0;entryDy=0;" parent="1" target="sOK9xL0Q-kKHLEvzhYfY-38" edge="1">
          <mxGeometry width="50" height="50" relative="1" as="geometry">
            <mxPoint x="1860" y="700" as="sourcePoint" />
            <mxPoint x="2030" y="680" as="targetPoint" />
            <Array as="points">
              <mxPoint x="1860" y="680" />
              <mxPoint x="2020" y="680" />
            </Array>
          </mxGeometry>
        </mxCell>
        <mxCell id="sOK9xL0Q-kKHLEvzhYfY-44" value="Lottie Tellyn" style="whiteSpace=wrap;html=1;" parent="1" vertex="1">
          <mxGeometry x="2120" y="700" width="120" height="60" as="geometry" />
        </mxCell>
        <mxCell id="sOK9xL0Q-kKHLEvzhYfY-45" value="Euan Dyer" style="whiteSpace=wrap;html=1;" parent="1" vertex="1">
          <mxGeometry x="2280" y="700" width="120" height="60" as="geometry" />
        </mxCell>
        <mxCell id="sOK9xL0Q-kKHLEvzhYfY-46" value="Nayah Thu" style="whiteSpace=wrap;html=1;" parent="1" vertex="1">
          <mxGeometry x="2120" y="600" width="120" height="60" as="geometry" />
        </mxCell>
        <mxCell id="sOK9xL0Q-kKHLEvzhYfY-47" value="Theo Iosif" style="whiteSpace=wrap;html=1;" parent="1" vertex="1">
          <mxGeometry x="2280" y="600" width="120" height="60" as="geometry" />
        </mxCell>
        <mxCell id="sOK9xL0Q-kKHLEvzhYfY-48" value="" style="endArrow=none;html=1;exitX=1;exitY=0.5;exitDx=0;exitDy=0;entryX=0;entryY=0.5;entryDx=0;entryDy=0;" parent="1" source="sOK9xL0Q-kKHLEvzhYfY-46" target="sOK9xL0Q-kKHLEvzhYfY-47" edge="1">
          <mxGeometry width="50" height="50" relative="1" as="geometry">
            <mxPoint x="2490" y="900" as="sourcePoint" />
            <mxPoint x="2540" y="850" as="targetPoint" />
          </mxGeometry>
        </mxCell>
        <mxCell id="sOK9xL0Q-kKHLEvzhYfY-49" value="" style="endArrow=none;html=1;" parent="1" edge="1">
          <mxGeometry width="50" height="50" relative="1" as="geometry">
            <mxPoint x="2260" y="680" as="sourcePoint" />
            <mxPoint x="2260" y="630" as="targetPoint" />
          </mxGeometry>
        </mxCell>
        <mxCell id="sOK9xL0Q-kKHLEvzhYfY-50" value="" style="endArrow=none;html=1;entryX=0.5;entryY=0;entryDx=0;entryDy=0;" parent="1" target="sOK9xL0Q-kKHLEvzhYfY-45" edge="1">
          <mxGeometry width="50" height="50" relative="1" as="geometry">
            <mxPoint x="2180" y="700" as="sourcePoint" />
            <mxPoint x="2350" y="680" as="targetPoint" />
            <Array as="points">
              <mxPoint x="2180" y="680" />
              <mxPoint x="2340" y="680" />
            </Array>
          </mxGeometry>
        </mxCell>
        <mxCell id="sOK9xL0Q-kKHLEvzhYfY-51" value="Margaux Latimer" style="whiteSpace=wrap;html=1;" parent="1" vertex="1">
          <mxGeometry x="2440" y="700" width="120" height="60" as="geometry" />
        </mxCell>
        <mxCell id="sOK9xL0Q-kKHLEvzhYfY-52" value="Owen Cross" style="whiteSpace=wrap;html=1;" parent="1" vertex="1">
          <mxGeometry x="2600" y="700" width="120" height="60" as="geometry" />
        </mxCell>
        <mxCell id="sOK9xL0Q-kKHLEvzhYfY-53" value="Michael Zajac" style="whiteSpace=wrap;html=1;" parent="1" vertex="1">
          <mxGeometry x="2440" y="600" width="120" height="60" as="geometry" />
        </mxCell>
        <mxCell id="sOK9xL0Q-kKHLEvzhYfY-54" value="Evelyn &quot;Evie&quot;" style="whiteSpace=wrap;html=1;" parent="1" vertex="1">
          <mxGeometry x="2600" y="600" width="120" height="60" as="geometry" />
        </mxCell>
        <mxCell id="sOK9xL0Q-kKHLEvzhYfY-55" value="" style="endArrow=none;html=1;exitX=1;exitY=0.5;exitDx=0;exitDy=0;entryX=0;entryY=0.5;entryDx=0;entryDy=0;" parent="1" source="sOK9xL0Q-kKHLEvzhYfY-53" target="sOK9xL0Q-kKHLEvzhYfY-54" edge="1">
          <mxGeometry width="50" height="50" relative="1" as="geometry">
            <mxPoint x="2810" y="900" as="sourcePoint" />
            <mxPoint x="2860" y="850" as="targetPoint" />
          </mxGeometry>
        </mxCell>
        <mxCell id="sOK9xL0Q-kKHLEvzhYfY-56" value="" style="endArrow=none;html=1;" parent="1" edge="1">
          <mxGeometry width="50" height="50" relative="1" as="geometry">
            <mxPoint x="2580" y="680" as="sourcePoint" />
            <mxPoint x="2580" y="630" as="targetPoint" />
          </mxGeometry>
        </mxCell>
        <mxCell id="sOK9xL0Q-kKHLEvzhYfY-57" value="" style="endArrow=none;html=1;entryX=0.5;entryY=0;entryDx=0;entryDy=0;" parent="1" target="sOK9xL0Q-kKHLEvzhYfY-52" edge="1">
          <mxGeometry width="50" height="50" relative="1" as="geometry">
            <mxPoint x="2500" y="700" as="sourcePoint" />
            <mxPoint x="2670" y="680" as="targetPoint" />
            <Array as="points">
              <mxPoint x="2500" y="680" />
              <mxPoint x="2660" y="680" />
            </Array>
          </mxGeometry>
        </mxCell>
        <mxCell id="sOK9xL0Q-kKHLEvzhYfY-58" value="Rafaj Faraj" style="whiteSpace=wrap;html=1;" parent="1" vertex="1">
          <mxGeometry x="2840" y="700" width="120" height="60" as="geometry" />
        </mxCell>
        <mxCell id="sOK9xL0Q-kKHLEvzhYfY-59" value="Jacob Stevens" style="whiteSpace=wrap;html=1;" parent="1" vertex="1">
          <mxGeometry x="3000" y="700" width="120" height="60" as="geometry" />
        </mxCell>
        <mxCell id="sOK9xL0Q-kKHLEvzhYfY-60" value="Isabel Howarth" style="whiteSpace=wrap;html=1;" parent="1" vertex="1">
          <mxGeometry x="2760" y="600" width="120" height="60" as="geometry" />
        </mxCell>
        <mxCell id="sOK9xL0Q-kKHLEvzhYfY-61" value="Benjamin Hughes" style="whiteSpace=wrap;html=1;" parent="1" vertex="1">
          <mxGeometry x="2920" y="600" width="120" height="60" as="geometry" />
        </mxCell>
        <mxCell id="sOK9xL0Q-kKHLEvzhYfY-62" value="" style="endArrow=none;html=1;exitX=1;exitY=0.5;exitDx=0;exitDy=0;entryX=0;entryY=0.5;entryDx=0;entryDy=0;" parent="1" source="sOK9xL0Q-kKHLEvzhYfY-60" target="sOK9xL0Q-kKHLEvzhYfY-61" edge="1">
          <mxGeometry width="50" height="50" relative="1" as="geometry">
            <mxPoint x="3130" y="900" as="sourcePoint" />
            <mxPoint x="3180" y="850" as="targetPoint" />
          </mxGeometry>
        </mxCell>
        <mxCell id="sOK9xL0Q-kKHLEvzhYfY-64" value="" style="endArrow=none;html=1;entryX=0.5;entryY=0;entryDx=0;entryDy=0;" parent="1" target="sOK9xL0Q-kKHLEvzhYfY-59" edge="1">
          <mxGeometry width="50" height="50" relative="1" as="geometry">
            <mxPoint x="2900" y="700" as="sourcePoint" />
            <mxPoint x="3070" y="680" as="targetPoint" />
            <Array as="points">
              <mxPoint x="2900" y="680" />
              <mxPoint x="3060" y="680" />
            </Array>
          </mxGeometry>
        </mxCell>
        <mxCell id="sOK9xL0Q-kKHLEvzhYfY-65" value="Louis Kemp" style="whiteSpace=wrap;html=1;" parent="1" vertex="1">
          <mxGeometry x="3080" y="600" width="120" height="60" as="geometry" />
        </mxCell>
        <mxCell id="sOK9xL0Q-kKHLEvzhYfY-66" value="" style="endArrow=none;html=1;entryX=0;entryY=0.5;entryDx=0;entryDy=0;" parent="1" target="sOK9xL0Q-kKHLEvzhYfY-65" edge="1">
          <mxGeometry width="50" height="50" relative="1" as="geometry">
            <mxPoint x="3040" y="630" as="sourcePoint" />
            <mxPoint x="2930" y="640" as="targetPoint" />
          </mxGeometry>
        </mxCell>
        <mxCell id="sOK9xL0Q-kKHLEvzhYfY-67" value="Shaunak Desai" style="whiteSpace=wrap;html=1;" parent="1" vertex="1">
          <mxGeometry x="3240" y="700" width="120" height="60" as="geometry" />
        </mxCell>
        <mxCell id="sOK9xL0Q-kKHLEvzhYfY-68" value="Edward Chesterton" style="whiteSpace=wrap;html=1;" parent="1" vertex="1">
          <mxGeometry x="3400" y="700" width="120" height="60" as="geometry" />
        </mxCell>
        <mxCell id="sOK9xL0Q-kKHLEvzhYfY-69" value="Cecily Moorsom" style="whiteSpace=wrap;html=1;" parent="1" vertex="1">
          <mxGeometry x="3240" y="600" width="120" height="60" as="geometry" />
        </mxCell>
        <mxCell id="sOK9xL0Q-kKHLEvzhYfY-70" value="Owen Chan" style="whiteSpace=wrap;html=1;" parent="1" vertex="1">
          <mxGeometry x="3400" y="600" width="120" height="60" as="geometry" />
        </mxCell>
        <mxCell id="sOK9xL0Q-kKHLEvzhYfY-71" value="" style="endArrow=none;html=1;exitX=1;exitY=0.5;exitDx=0;exitDy=0;entryX=0;entryY=0.5;entryDx=0;entryDy=0;" parent="1" source="sOK9xL0Q-kKHLEvzhYfY-69" target="sOK9xL0Q-kKHLEvzhYfY-70" edge="1">
          <mxGeometry width="50" height="50" relative="1" as="geometry">
            <mxPoint x="3610" y="900" as="sourcePoint" />
            <mxPoint x="3660" y="850" as="targetPoint" />
          </mxGeometry>
        </mxCell>
        <mxCell id="sOK9xL0Q-kKHLEvzhYfY-72" value="" style="endArrow=none;html=1;" parent="1" edge="1">
          <mxGeometry width="50" height="50" relative="1" as="geometry">
            <mxPoint x="3380" y="680" as="sourcePoint" />
            <mxPoint x="3380" y="630" as="targetPoint" />
          </mxGeometry>
        </mxCell>
        <mxCell id="sOK9xL0Q-kKHLEvzhYfY-73" value="" style="endArrow=none;html=1;entryX=0.5;entryY=0;entryDx=0;entryDy=0;" parent="1" target="sOK9xL0Q-kKHLEvzhYfY-68" edge="1">
          <mxGeometry width="50" height="50" relative="1" as="geometry">
            <mxPoint x="3300" y="700" as="sourcePoint" />
            <mxPoint x="3470" y="680" as="targetPoint" />
            <Array as="points">
              <mxPoint x="3300" y="680" />
              <mxPoint x="3460" y="680" />
            </Array>
          </mxGeometry>
        </mxCell>
        <mxCell id="G9G2QMmGk5GcdjE_9JgA-1" value="Rachel Tate" style="whiteSpace=wrap;html=1;" vertex="1" parent="1">
          <mxGeometry x="360" y="600" width="120" height="60" as="geometry" />
        </mxCell>
        <mxCell id="G9G2QMmGk5GcdjE_9JgA-2" value="" style="endArrow=none;html=1;entryX=0.5;entryY=0;entryDx=0;entryDy=0;" edge="1" parent="1">
          <mxGeometry width="50" height="50" relative="1" as="geometry">
            <mxPoint x="260" y="600" as="sourcePoint" />
            <mxPoint x="420" y="600" as="targetPoint" />
            <Array as="points">
              <mxPoint x="260" y="580" />
              <mxPoint x="420" y="580" />
            </Array>
          </mxGeometry>
        </mxCell>
        <mxCell id="G9G2QMmGk5GcdjE_9JgA-3" value="" style="endArrow=none;html=1;" edge="1" parent="1">
          <mxGeometry width="50" height="50" relative="1" as="geometry">
            <mxPoint x="340" y="580" as="sourcePoint" />
            <mxPoint x="340" y="530" as="targetPoint" />
          </mxGeometry>
        </mxCell>
        <mxCell id="G9G2QMmGk5GcdjE_9JgA-4" value="Emma Bogert" style="whiteSpace=wrap;html=1;" vertex="1" parent="1">
          <mxGeometry x="200" y="500" width="120" height="60" as="geometry" />
        </mxCell>
        <mxCell id="G9G2QMmGk5GcdjE_9JgA-5" value="Catherine Dixon" style="whiteSpace=wrap;html=1;" vertex="1" parent="1">
          <mxGeometry x="360" y="500" width="120" height="60" as="geometry" />
        </mxCell>
        <mxCell id="G9G2QMmGk5GcdjE_9JgA-6" value="" style="endArrow=none;html=1;entryX=1;entryY=0.5;entryDx=0;entryDy=0;" edge="1" parent="1" target="G9G2QMmGk5GcdjE_9JgA-4">
          <mxGeometry width="50" height="50" relative="1" as="geometry">
            <mxPoint x="360" y="530" as="sourcePoint" />
            <mxPoint x="770" y="650" as="targetPoint" />
          </mxGeometry>
        </mxCell>
      </root>
    </mxGraphModel>
  </diagram>
</mxfile>
